# xmcd
#
# Track frame offsets:
#	150
#	18365
#	30207
#	44971
#	56051
#	74284
#	87597
#	96153
#	111345
#	125590
#	140260
#	150002
#	169971
#	189025
#	206710
#	226640
#	238755
#	253890
#	270983
#	290959
#	301566
#	314159
#	333141
#
# Disc length: 4459 seconds
#
# Revision: 1
# Processed by: cddbd v1.5.2PL0 Copyright (c) Steve Scherf et al.
# Submitted via: audiograbber 1.83.01
#
DISCID=44116917
DTITLE=NCM - NCM 048
DYEAR=2007
DGENRE=Gospel
TTITLE0=Captivated  - Shawn Mcdonald
TTITLE1=Satisfied  - Barbara Fairchild and Angie Hoskin Aldridge
TTITLE2=You Alone  - John Featherstone
TTITLE3=Dear Lord, Pray For Me  - Billy Chernoff
TTITLE4=In My Arms  - Plumb
TTITLE5=Precious Promises  - Lawson Spiller
TTITLE6=Looking For The Lights Of That City - Roy Morris
TTITLE7=Desperate To See Your Glory  - Ian Yates
TTITLE8=Seven Days A Week Kinda Guy  - Russell Scherer
TTITLE9=Faith  - Jerzy Group
TTITLE10=A Wonderfuld Time Up There - Clint Miller
TTITLE11=Colombe Shalom  - Clint Miller
TTITLE12=Mary´s Boychild  - Jodi Faith
TTITLE13=Mystery Unvereiled  - Jean Watson
TTITLE14=Cinderella  - Steven Curtis Chapman
TTITLE15=Winter Wonderland - Jett Williams
TTITLE16=Morning Star  - Phil Mitchell Band
TTITLE17=Silent Night  - Billy Dean and Dolly Parton
TTITLE18=Heavenly Night  - Kelita
TTITLE19=The Way In A Manger  - Donnie Summer
TTITLE20=It Came Upon A Midnight Clear  - Sandi Patty and Amy Grant
TTITLE21=Dj Birthday Song  - Claude Walton 
TTITLE22=Dj Birthday Song  - Claude Walton 
EXTD=
EXTT0=
EXTT1=
EXTT2=
EXTT3=
EXTT4=
EXTT5=
EXTT6=
EXTT7=
EXTT8=
EXTT9=
EXTT10=
EXTT11=
EXTT12=
EXTT13=
EXTT14=
EXTT15=
EXTT16=
EXTT17=
EXTT18=
EXTT19=
EXTT20=
EXTT21=
EXTT22=
PLAYORDER=
